<svg width="1200" height="520" viewBox="0 0 1200 520" fill="none" xmlns="http://www.w3.org/2000/svg">
  <defs>
    <linearGradient id="bg" x1="0" y1="0" x2="1200" y2="520" gradientUnits="userSpaceOnUse">
      <stop offset="0" stop-color="#F8FBEE"/>
      <stop offset="1" stop-color="#ECF5CF"/>
    </linearGradient>
    <linearGradient id="chip" x1="200" y1="150" x2="1000" y2="390" gradientUnits="userSpaceOnUse">
      <stop offset="0" stop-color="#829240"/>
      <stop offset="1" stop-color="#A9C84D"/>
    </linearGradient>
  </defs>

  <rect x="0" y="0" width="1200" height="520" rx="96" fill="url(#bg)"/>

  <rect x="230" y="120" width="740" height="280" rx="52" fill="url(#chip)"/>
  <rect x="300" y="190" width="600" height="140" rx="28" fill="#FFFFFF" fill-opacity="0.2"/>

  <circle cx="380" cy="200" r="16" fill="#FFFFFF"/>
  <circle cx="820" cy="320" r="16" fill="#FFFFFF"/>
  <circle cx="360" cy="320" r="10" fill="#DCE8B1"/>
  <circle cx="840" cy="200" r="10" fill="#DCE8B1"/>

  <path d="M380 200H820" stroke="#FFFFFF" stroke-width="8" stroke-linecap="round"/>
  <path d="M360 320H840" stroke="#DCE8B1" stroke-width="6" stroke-linecap="round"/>
  <path d="M380 200L360 320" stroke="#FFFFFF" stroke-opacity="0.7" stroke-width="5"/>
  <path d="M820 200L840 320" stroke="#FFFFFF" stroke-opacity="0.7" stroke-width="5"/>

  <rect x="560" y="208" width="80" height="16" rx="8" fill="#4F5F1F"/>
  <rect x="560" y="246" width="80" height="16" rx="8" fill="#4F5F1F"/>
  <rect x="560" y="284" width="80" height="16" rx="8" fill="#4F5F1F"/>
</svg>
